<svg width="24" height="24" viewBox="0 0 24 24" fill="none" xmlns="http://www.w3.org/2000/svg">
<rect width="24" height="24" rx="12" fill="white" fill-opacity="0.2"/>
<path fill-rule="evenodd" clip-rule="evenodd" d="M7.25 17.5C7.58152 17.5 7.89946 17.3683 8.13388 17.1339C8.3683 16.8995 8.5 16.5815 8.5 16.25C8.5 15.9185 8.3683 15.6005 8.13388 15.3661C7.89946 15.1317 7.58152 15 7.25 15C6.91848 15 6.60054 15.1317 6.36612 15.3661C6.1317 15.6005 6 15.9185 6 16.25C6 16.5815 6.1317 16.8995 6.36612 17.1339C6.60054 17.3683 6.91848 17.5 7.25 17.5ZM7.25 19C7.97935 19 8.67882 18.7103 9.19454 18.1945C9.71027 17.6788 10 16.9793 10 16.25C10 15.5207 9.71027 14.8212 9.19454 14.3055C8.67882 13.7897 7.97935 13.5 7.25 13.5C6.52065 13.5 5.82118 13.7897 5.30546 14.3055C4.78973 14.8212 4.5 15.5207 4.5 16.25C4.5 16.9793 4.78973 17.6788 5.30546 18.1945C5.82118 18.7103 6.52065 19 7.25 19ZM19 17.5C19.3315 17.5 19.6495 17.3683 19.8839 17.1339C20.1183 16.8995 20.25 16.5815 20.25 16.25C20.25 15.9185 20.1183 15.6005 19.8839 15.3661C19.6495 15.1317 19.3315 15 19 15C18.6685 15 18.3505 15.1317 18.1161 15.3661C17.8817 15.6005 17.75 15.9185 17.75 16.25C17.75 16.5815 17.8817 16.8995 18.1161 17.1339C18.3505 17.3683 18.6685 17.5 19 17.5ZM19 19C19.7293 19 20.4288 18.7103 20.9445 18.1945C21.4603 17.6788 21.75 16.9793 21.75 16.25C21.75 15.5207 21.4603 14.8212 20.9445 14.3055C20.4288 13.7897 19.7293 13.5 19 13.5C18.2707 13.5 17.5712 13.7897 17.0555 14.3055C16.5397 14.8212 16.25 15.5207 16.25 16.25C16.25 16.9793 16.5397 17.6788 17.0555 18.1945C17.5712 18.7103 18.2707 19 19 19Z" fill="#EFFBF3"/>
<path d="M16.679 16.64C16.407 16.688 16.143 16.505 16.145 16.229C16.1499 15.586 16.3799 14.9651 16.7951 14.4741C17.2102 13.9831 17.7843 13.6531 18.4176 13.5415C19.0508 13.4299 19.7031 13.5437 20.2611 13.8631C20.8192 14.1826 21.2476 14.6874 21.472 15.29C21.5685 15.5485 21.3825 15.8105 21.1105 15.8585L16.679 16.64Z" fill="#EFFBF3"/>
<path fill-rule="evenodd" clip-rule="evenodd" d="M20.1855 14.406C19.856 14.1753 19.4708 14.0371 19.0698 14.0058C18.6688 13.9745 18.2667 14.0513 17.9055 14.2281C17.5442 14.405 17.237 14.6754 17.0157 15.0113C16.7945 15.3472 16.6673 15.7363 16.6475 16.138L20.9685 15.376C20.804 14.9854 20.5326 14.6491 20.1855 14.406ZM18.3305 13.0485C19.0789 12.9166 19.85 13.0511 20.5095 13.4288C21.169 13.8064 21.6754 14.4032 21.9405 15.1155C22.1685 15.7265 21.7115 16.2605 21.1975 16.3505L16.766 17.1325C16.2525 17.2225 15.6405 16.8775 15.645 16.2255C15.6505 15.4655 15.9222 14.7315 16.4128 14.151C16.9035 13.5706 17.582 13.1805 18.3305 13.0485Z" fill="#EFFBF3"/>
<path d="M4.5 10.5C4.5 10.1022 4.65804 9.72064 4.93934 9.43934C5.22064 9.15804 5.60218 9 6 9H10.5C10.8978 9 11.2794 9.15804 11.5607 9.43934C11.842 9.72064 12 10.1022 12 10.5V11H4.5V10.5Z" fill="#EFFBF3"/>
<path fill-rule="evenodd" clip-rule="evenodd" d="M11.915 10C11.97 10.1565 12 10.325 12 10.5V11H4.5V10.5C4.49967 10.3029 4.53825 10.1077 4.61351 9.92559C4.68878 9.74345 4.79925 9.57796 4.93861 9.43861C5.07796 9.29925 5.24345 9.18878 5.42559 9.11351C5.60772 9.03825 5.80293 8.99967 6 9H10.5C11.153 9 11.709 9.4175 11.915 10Z" fill="#EFFBF3"/>
<path d="M2 16.3C2 13.925 4.258 12 7.043 12H11.078C11.311 12 11.5 12.161 11.5 12.36V15.6C11.5 16.097 11.0275 16.5 10.4445 16.5H2.2345C2.105 16.5 2 16.41 2 16.3Z" fill="#EFFBF3"/>
<path fill-rule="evenodd" clip-rule="evenodd" d="M10.5 13H7.043C5.0395 13 3.552 14.141 3.125 15.5H10.4445C10.4632 15.5001 10.4818 15.498 10.5 15.4935V13ZM7.043 12C4.258 12 2 13.925 2 16.3C2 16.41 2.105 16.5 2.235 16.5H10.4445C11.0275 16.5 11.5 16.097 11.5 15.6V12.36C11.5 12.161 11.311 12 11.078 12H7.043ZM15.4025 9.2815L14.5 16.5H16.25L17.5 14.3355V9.5H16.25C15.9535 9.50048 15.6618 9.42527 15.4025 9.2815Z" fill="#EFFBF3"/>
<path d="M14.5 6.75C14.5 6.28587 14.6844 5.84075 15.0126 5.51256C15.3408 5.18437 15.7859 5 16.25 5H18.1925C18.3625 5 18.5 5.1375 18.5 5.3075V8.1925C18.5 8.3625 18.362 8.5 18.1925 8.5H16.25C15.7859 8.5 15.3408 8.31563 15.0126 7.98744C14.6844 7.65925 14.5 7.21413 14.5 6.75Z" fill="#EFFBF3"/>
<path fill-rule="evenodd" clip-rule="evenodd" d="M17.5 6H16.25C16.0511 6 15.8603 6.07902 15.7197 6.21967C15.579 6.36032 15.5 6.55109 15.5 6.75C15.5 6.94891 15.579 7.13968 15.7197 7.28033C15.8603 7.42098 16.0511 7.5 16.25 7.5H17.5V6ZM16.25 5C15.7859 5 15.3408 5.18437 15.0126 5.51256C14.6844 5.84075 14.5 6.28587 14.5 6.75C14.5 7.21413 14.6844 7.65925 15.0126 7.98744C15.3408 8.31563 15.7859 8.5 16.25 8.5H18.1925C18.3625 8.5 18.5 8.362 18.5 8.1925V5.3075C18.5 5.22595 18.4676 5.14773 18.4099 5.09006C18.3523 5.0324 18.2741 5 18.1925 5H16.25Z" fill="#EFFBF3"/>
<path d="M12.673 5.5L15.1355 5.933L14.962 6.918L12.5 6.485L12.673 5.5ZM10.5 13H15.5L14.6175 16.5H10.5V13Z" fill="#EFFBF3"/>
</svg>
